<svg width="24" height="24" viewBox="0 0 24 24" fill="none" xmlns="http://www.w3.org/2000/svg">
<path d="M12 2.4C13.8987 2.4 15.7548 2.96303 17.3335 4.01789C18.9122 5.07275 20.1426 6.57207 20.8692 8.32624C21.5958 10.0804 21.786 12.0106 21.4155 13.8729C21.0451 15.7351 20.1308 17.4456 18.7882 18.7882C17.4456 20.1308 15.7351 21.0451 13.8729 21.4155C12.0107 21.786 10.0804 21.5958 8.32624 20.8692C6.57207 20.1426 5.07276 18.9122 4.0179 17.3335C2.96303 15.7548 2.4 13.8987 2.4 12C2.40292 9.45481 3.41528 7.01471 5.21499 5.21499C7.01471 3.41527 9.45482 2.40291 12 2.4ZM12 0C9.62663 0 7.30655 0.703788 5.33316 2.02236C3.35977 3.34094 1.8217 5.21508 0.913451 7.4078C0.00519943 9.60051 -0.232441 12.0133 0.230582 14.3411C0.693605 16.6689 1.83649 18.807 3.51472 20.4853C5.19295 22.1635 7.33115 23.3064 9.65892 23.7694C11.9867 24.2324 14.3995 23.9948 16.5922 23.0865C18.7849 22.1783 20.6591 20.6402 21.9776 18.6668C23.2962 16.6934 24 14.3734 24 12C24 10.4241 23.6896 8.8637 23.0866 7.4078C22.4835 5.95189 21.5996 4.62902 20.4853 3.51472C19.371 2.40042 18.0481 1.5165 16.5922 0.913445C15.1363 0.310389 13.5759 0 12 0Z" fill="#8D9499"/>
<path d="M11.9999 4.48801C11.2879 4.48801 10.5919 4.69914 9.99989 5.09472C9.40787 5.49029 8.94645 6.05253 8.67397 6.71035C8.4015 7.36816 8.33021 8.092 8.46911 8.79033C8.60802 9.48866 8.95089 10.1301 9.45436 10.6336C9.95783 11.1371 10.5993 11.4799 11.2976 11.6188C11.9959 11.7577 12.7198 11.6864 13.3776 11.414C14.0354 11.1415 14.5977 10.6801 14.9932 10.0881C15.3888 9.49604 15.5999 8.80002 15.5999 8.08801C15.5999 7.13323 15.2207 6.21755 14.5455 5.54242C13.8704 4.86729 12.9547 4.48801 11.9999 4.48801ZM18.9269 16C18.5479 15.249 18.1219 14.649 17.6629 14.437C15.6299 13.499 14.6629 13.179 11.9159 13.179C9.22294 13.179 8.12994 13.63 6.37494 14.387C5.89594 14.593 5.45494 15.21 5.06494 15.987C5.76404 17.207 6.77259 18.2209 7.98879 18.9265C9.20499 19.6322 10.5858 20.0045 11.9919 20.0059C13.398 20.0073 14.7795 19.6378 15.9972 18.9346C17.2148 18.2315 18.2254 17.2196 18.9269 16.001V16Z" fill="#8D9499"/>
</svg>
