<svg width="16" height="16" viewBox="0 0 16 16" fill="none" xmlns="http://www.w3.org/2000/svg">
<path d="M13.562 6.57444V4.54703C13.562 2.06903 11.5344 0.041626 9.05656 0.041626H6.80387C4.32568 0.041626 2.29846 2.069 2.29846 4.54703V6.57444L0.0457764 12.4315C0.0457764 13.5579 3.57553 15.8106 7.93025 15.8106C12.2846 15.8106 15.8147 13.5579 15.8147 12.4315L13.562 6.57444ZM4.55118 13.9803C4.31762 13.9803 4.12881 13.7914 4.12881 13.5578C4.12881 13.3243 4.31762 13.1354 4.55118 13.1354C4.78475 13.1354 4.97359 13.3243 4.97359 13.5578C4.97359 13.7914 4.78475 13.9803 4.55118 13.9803ZM3.98799 7.9261C3.98799 7.61628 4.14418 7.16347 4.33521 6.91981C4.33521 6.91981 4.87053 6.23656 5.95912 6.23656C6.51128 6.23656 6.89665 6.49028 6.89665 6.49028C7.15512 6.66041 7.36706 7.05309 7.36706 7.36291V8.20769C7.36706 8.36259 7.11371 8.48928 6.80387 8.48928H4.55118C4.24137 8.48928 3.98799 8.23575 3.98799 7.9261ZM6.24071 13.5579H5.67756V12.4315L6.24071 11.8683V13.5579V13.5579ZM7.64865 13.5579H6.80387V11.3052H7.64865V13.5579V13.5579ZM7.08546 10.742V9.89722C7.08546 9.43047 7.46384 9.05247 7.93021 9.05247C8.39696 9.05247 8.77496 9.4305 8.77496 9.89722V10.742H7.08546V10.742ZM9.05656 13.5579H8.21181V11.3052H9.05656V13.5579V13.5579ZM10.1829 13.5579H9.61975V11.8683L10.1829 12.4315V13.5579ZM11.3093 13.9803C11.0757 13.9803 10.8869 13.7914 10.8869 13.5578C10.8869 13.3243 11.0757 13.1354 11.3093 13.1354C11.5428 13.1354 11.7317 13.3243 11.7317 13.5578C11.7317 13.7914 11.5428 13.9803 11.3093 13.9803ZM11.3093 8.48928H9.05656C8.74675 8.48928 8.4934 8.36259 8.4934 8.20769V7.36291C8.4934 7.05306 8.70496 6.66041 8.96384 6.49028C8.96384 6.49028 9.34881 6.23656 9.90137 6.23656C10.9899 6.23656 11.5252 6.91981 11.5252 6.91981C11.7163 7.16344 11.8725 7.61628 11.8725 7.9261C11.8725 8.23575 11.6191 8.48928 11.3093 8.48928ZM14.7903 12.694C14.7569 12.7068 14.7224 12.7131 14.6883 12.7131C14.5757 12.7131 14.4691 12.6449 14.4262 12.5338L12.3781 7.2731C11.8365 5.91997 11.1674 5.39181 9.99078 5.39181C9.21053 5.39181 8.55609 5.8756 8.54946 5.88091C8.20228 6.14141 7.65815 6.14031 7.31056 5.88091C7.30506 5.8756 6.644 5.39181 5.86925 5.39181C4.6934 5.39181 4.02353 5.91997 3.48125 7.27528L1.43465 12.5338C1.37818 12.6786 1.21393 12.7505 1.06984 12.694C0.924995 12.6379 0.85312 12.4748 0.909964 12.3292L2.95771 7.06888C3.58578 5.49794 4.45659 4.82863 5.86928 4.82863C6.83578 4.82863 7.616 5.40556 7.64862 5.42956C7.796 5.54084 8.0644 5.54084 8.21143 5.42956C8.24443 5.40553 9.02503 4.82863 9.99078 4.82863C11.4039 4.82863 12.2743 5.49794 12.902 7.06666L14.9508 12.3292C15.007 12.4748 14.9355 12.6379 14.7903 12.694Z" fill="#172026"/>
</svg>
