<svg width="16" height="16" viewBox="0 0 16 16" fill="none" xmlns="http://www.w3.org/2000/svg">
<path fill-rule="evenodd" clip-rule="evenodd" d="M13.6569 13.6569C15.1679 12.1459 16 10.1369 16 8C16 5.86312 15.1679 3.85418 13.6568 2.34318C12.1459 0.832126 10.1369 0 8 0C5.86312 0 3.85415 0.832126 2.34315 2.34318C0.832126 3.85418 0 5.86312 0 8C0 10.1369 0.832126 12.1459 2.34315 13.6569C3.85418 15.1679 5.86312 16 8 16H16V15.0588H11.7726C12.4574 14.6917 13.092 14.2217 13.6569 13.6569ZM3.76471 9.88235C2.72678 9.88235 1.88235 9.03793 1.88235 8C1.88235 6.96207 2.72678 6.11765 3.76471 6.11765C4.80264 6.11765 5.64706 6.96207 5.64706 8C5.64706 9.03793 4.80264 9.88235 3.76471 9.88235ZM8 14.1176C6.96207 14.1176 6.11765 13.2732 6.11765 12.2353C6.11765 11.1974 6.96207 10.3529 8 10.3529C9.03793 10.3529 9.88235 11.1974 9.88235 12.2353C9.88235 13.2732 9.03793 14.1176 8 14.1176ZM7.05882 8C7.05882 7.48022 7.48022 7.05882 8 7.05882C8.51978 7.05882 8.94118 7.48022 8.94118 8C8.94118 8.51978 8.51978 8.94118 8 8.94118C7.48022 8.94118 7.05882 8.51978 7.05882 8ZM8 5.64706C6.96207 5.64706 6.11765 4.80264 6.11765 3.76471C6.11765 2.72678 6.96207 1.88235 8 1.88235C9.03793 1.88235 9.88235 2.72678 9.88235 3.76471C9.88235 4.80264 9.03793 5.64706 8 5.64706ZM10.3529 8C10.3529 6.96207 11.1974 6.11765 12.2353 6.11765C13.2732 6.11765 14.1176 6.96207 14.1176 8C14.1176 9.03793 13.2732 9.88235 12.2353 9.88235C11.1974 9.88235 10.3529 9.03793 10.3529 8ZM8.00002 4.70585C8.51982 4.70585 8.9412 4.28447 8.9412 3.76467C8.9412 3.24487 8.51982 2.82349 8.00002 2.82349C7.48022 2.82349 7.05884 3.24487 7.05884 3.76467C7.05884 4.28447 7.48022 4.70585 8.00002 4.70585ZM13.1764 8.00002C13.1764 8.51982 12.755 8.9412 12.2352 8.9412C11.7154 8.9412 11.2941 8.51982 11.2941 8.00002C11.2941 7.48022 11.7154 7.05884 12.2352 7.05884C12.755 7.05884 13.1764 7.48022 13.1764 8.00002ZM3.76479 8.9412C4.28459 8.9412 4.70597 8.51982 4.70597 8.00002C4.70597 7.48022 4.28459 7.05884 3.76479 7.05884C3.24499 7.05884 2.82361 7.48022 2.82361 8.00002C2.82361 8.51982 3.24499 8.9412 3.76479 8.9412ZM8.9412 12.2352C8.9412 12.755 8.51982 13.1764 8.00002 13.1764C7.48022 13.1764 7.05884 12.755 7.05884 12.2352C7.05884 11.7154 7.48022 11.2941 8.00002 11.2941C8.51982 11.2941 8.9412 11.7154 8.9412 12.2352Z" fill="#172026"/>
</svg>
