<svg width="16" height="16" viewBox="0 0 16 16" fill="none" xmlns="http://www.w3.org/2000/svg">
<path fill-rule="evenodd" clip-rule="evenodd" d="M15.6141 6.25534C15.7131 6.70921 15.7679 7.17896 15.7851 7.65859H0.0970459C0.245983 3.44959 3.6958 0.0810547 7.94117 0.0810547C9.14817 0.0810547 10.2872 0.361336 11.309 0.847367V1.20365V1.76496H10.7477V2.32624H11.8703V2.88752H11.309V3.4489H12.4316V4.01018H12.9929V4.57146H11.309V5.13277H13.5542V5.69405H12.4316V6.25534H15.6141ZM7.37989 4.01015C7.37989 2.77043 6.37442 1.76496 5.1347 1.76496C3.89442 1.76496 2.88948 2.77043 2.88948 4.01015C2.88948 5.25021 3.89442 6.25534 5.1347 6.25534C6.37442 6.25534 7.37989 5.25024 7.37989 4.01015ZM9.06376 15.2361H9.62508V15.6121C9.08242 15.7305 8.51998 15.7974 7.94117 15.7974C3.6958 15.7974 0.245952 12.4292 0.0970459 8.21985H15.7851C15.768 8.69966 15.7131 9.16925 15.6141 9.6231H12.9929V10.1844H14.1155V10.7457H11.8703V11.307H10.7477V11.8683H12.4316V12.4296H13.5542V12.9909H12.9929V13.5522H11.309V14.1135H10.7477V14.6748H9.06376V15.2361Z" fill="#172026"/>
</svg>
