<svg width="16" height="16" viewBox="0 0 16 16" fill="none" xmlns="http://www.w3.org/2000/svg">
<path d="M0 13.3333C0 13.5691 0.0936504 13.7952 0.260349 13.9619C0.427048 14.1286 0.653141 14.2222 0.888889 14.2222H5.33333V12.4444H0.888889C0.653141 12.4444 0.427048 12.5381 0.260349 12.7048C0.0936504 12.8715 0 13.0976 0 13.3333ZM0 2.66667C0 2.90241 0.0936504 3.12851 0.260349 3.29521C0.427048 3.46191 0.653141 3.55556 0.888889 3.55556H9.33333V1.77778H0.888889C0.653141 1.77778 0.427048 1.87143 0.260349 2.03813C0.0936504 2.20483 0 2.43092 0 2.66667ZM8.44444 15.5556V14.2222H15.1111C15.3469 14.2222 15.573 14.1286 15.7397 13.9619C15.9063 13.7952 16 13.5691 16 13.3333C16 13.0976 15.9063 12.8715 15.7397 12.7048C15.573 12.5381 15.3469 12.4444 15.1111 12.4444H8.44444V11.5556C8.44444 11.3198 8.35079 11.0937 8.18409 10.927C8.0174 10.7603 7.7913 10.6667 7.55556 10.6667C7.31981 10.6667 7.09372 10.7603 6.92702 10.927C6.76032 11.0937 6.66667 11.3198 6.66667 11.5556V15.5556H8.44444ZM3.55556 6.22222V7.11111H0.888889C0.653141 7.11111 0.427048 7.20476 0.260349 7.37146C0.0936504 7.53816 0 7.76425 0 8C0 8.23575 0.0936504 8.46184 0.260349 8.62854C0.427048 8.79524 0.653141 8.88889 0.888889 8.88889H3.55556V10.2222H5.33333V6.22222C5.33333 5.98647 5.23968 5.76038 5.07298 5.59368C4.90628 5.42698 4.68019 5.33333 4.44444 5.33333C4.2087 5.33333 3.9826 5.42698 3.8159 5.59368C3.64921 5.76038 3.55556 5.98647 3.55556 6.22222V6.22222ZM16 8C16 7.76425 15.9063 7.53816 15.7397 7.37146C15.573 7.20476 15.3469 7.11111 15.1111 7.11111H6.66667V8.88889H15.1111C15.3469 8.88889 15.573 8.79524 15.7397 8.62854C15.9063 8.46184 16 8.23575 16 8ZM10.6667 4.88889H12.4444V3.55556H15.1111C15.3469 3.55556 15.573 3.46191 15.7397 3.29521C15.9063 3.12851 16 2.90241 16 2.66667C16 2.43092 15.9063 2.20483 15.7397 2.03813C15.573 1.87143 15.3469 1.77778 15.1111 1.77778H12.4444V0.888889C12.4444 0.653141 12.3508 0.427048 12.1841 0.260349C12.0174 0.0936504 11.7913 0 11.5556 0C11.3198 0 11.0937 0.0936504 10.927 0.260349C10.7603 0.427048 10.6667 0.653141 10.6667 0.888889V4.88889Z" fill="#172026"/>
</svg>
