<svg width="16" height="16" viewBox="0 0 16 16" fill="none" xmlns="http://www.w3.org/2000/svg">
<path fill-rule="evenodd" clip-rule="evenodd" d="M10.3923 6.02105C10.4084 6.00092 11.4061 4.82802 13.3453 3.87127C15.3291 7.71048 15.3396 13.1636 15.3396 13.2068V13.207C15.3396 13.7622 14.8726 14.2128 14.2962 14.2128H11.969L10.5737 15.3908L9.55921 14.8832L8.03664 15.8981L6.51408 14.8832L5.49952 15.3908L4.10424 14.2128H1.77708C1.20067 14.2128 0.733643 13.7622 0.733643 13.207C0.733643 13.207 0.736205 7.72577 2.72799 3.87127C4.66746 4.82802 5.66483 6.00092 5.68092 6.02105C5.70908 6.05433 5.74896 6.07224 5.78955 6.07224C5.82099 6.07224 5.85246 6.06161 5.87914 6.04005C5.93874 5.99067 5.94752 5.90255 5.89814 5.84292C5.88133 5.8217 4.85396 4.61074 2.85889 3.62436C3.16977 3.05892 3.52674 2.5363 3.93452 2.07436C5.80414 3.65033 6.76861 5.94933 6.78324 5.98445C6.78651 5.99291 6.79237 5.99881 6.79828 6.00477C6.80156 6.00807 6.80486 6.01139 6.80774 6.01517C6.81034 6.0182 6.81249 6.02123 6.81458 6.02417C6.81805 6.02908 6.82138 6.03376 6.82639 6.03786C6.85164 6.05833 6.88052 6.07224 6.91308 6.07224H6.92111C6.92254 6.07224 6.92352 6.07147 6.92447 6.07071C6.92524 6.0701 6.92601 6.0695 6.92699 6.06933C6.92809 6.06921 6.92919 6.06909 6.93028 6.06897C6.94234 6.06765 6.95434 6.06634 6.96574 6.06164C6.97182 6.05933 6.97539 6.05451 6.97904 6.04957C6.98176 6.04589 6.98453 6.04215 6.98842 6.03933C7.00417 6.02874 7.01586 6.01849 7.02574 6.00239C7.03561 5.98705 7.0393 5.9728 7.04258 5.95486C7.0435 5.95008 7.04574 5.94588 7.04795 5.94171C7.05097 5.93602 7.05396 5.93039 7.05355 5.92342C7.04183 5.72924 6.83886 2.54292 6.02327 0.554798C6.62489 0.310485 7.29055 0.168579 8.03664 0.168579C8.78274 0.168579 9.44836 0.310485 10.05 0.554798C9.23439 2.54255 9.03142 5.72924 9.01974 5.92342C9.01932 5.93038 9.02231 5.936 9.02533 5.94168C9.02754 5.94585 9.02978 5.95006 9.0307 5.95486C9.03399 5.97277 9.03767 5.98705 9.04752 6.00239C9.05739 6.01849 9.06908 6.02874 9.08483 6.03933C9.08872 6.04214 9.09149 6.04589 9.09421 6.04958C9.09786 6.05452 9.10143 6.05935 9.10752 6.06164C9.11888 6.06634 9.1309 6.06765 9.14295 6.06896C9.14405 6.06908 9.14516 6.06921 9.14627 6.06933C9.14732 6.06949 9.14812 6.07016 9.14891 6.07081C9.14977 6.07153 9.15062 6.07224 9.15177 6.07224H9.1602C9.19274 6.07224 9.22161 6.05833 9.24686 6.03786C9.25183 6.03378 9.25513 6.02913 9.25857 6.02428C9.26069 6.0213 9.26286 6.01823 9.26552 6.01517C9.2684 6.01139 9.27169 6.00807 9.27497 6.00476C9.28087 5.99881 9.28672 5.99291 9.29002 5.98445C9.30464 5.94933 10.2691 3.65033 12.1387 2.07436C12.5465 2.5363 12.9035 3.05892 13.2144 3.62436C11.2193 4.61077 10.1919 5.8217 10.1751 5.84292C10.1257 5.90255 10.1345 5.99067 10.1941 6.04005C10.2208 6.06164 10.2522 6.07224 10.2837 6.07224C10.3243 6.07224 10.3642 6.05433 10.3923 6.02105ZM10.2109 7.2002H9.23292C9.18795 7.28102 9.16017 7.37283 9.16014 7.47158C9.16014 7.78174 9.41177 8.03336 9.72192 8.03336C10.032 8.03336 10.2837 7.7817 10.2837 7.47158C10.2837 7.37283 10.2559 7.28102 10.2109 7.2002ZM9.4813 9.43777C9.4813 8.97217 8.83427 8.59511 8.03664 8.59511C7.23896 8.59511 6.59196 8.97217 6.59202 9.43777C6.59202 9.49155 6.60261 9.54348 6.61908 9.59392C6.68711 9.57308 6.75808 9.55845 6.83305 9.55845C7.21377 9.55845 7.52246 9.85395 7.54986 10.2281C7.70274 10.26 7.86477 10.2804 8.03667 10.2804C8.20855 10.2804 8.37055 10.26 8.52342 10.2281C8.55086 9.85395 8.85952 9.55845 9.24027 9.55845C9.31527 9.55845 9.38586 9.57308 9.45424 9.59392C9.47067 9.54348 9.4813 9.49155 9.4813 9.43777ZM6.8403 7.2002H5.86233C5.81733 7.28102 5.78955 7.37283 5.78952 7.47158C5.78952 7.78174 6.04114 8.03336 6.3513 8.03336C6.66146 8.03336 6.91308 7.7817 6.91308 7.47158C6.91308 7.37283 6.88527 7.28102 6.8403 7.2002ZM3.54249 11.9657C3.69792 11.9657 3.82336 11.8403 3.82336 11.6848C3.82336 10.8418 4.7483 10.0902 6.07449 9.70658C6.05036 9.61583 6.03024 9.52624 6.03024 9.43774C6.03024 9.32545 6.05108 9.2183 6.08364 9.11517C4.40674 9.54636 3.26161 10.5222 3.26161 11.6848C3.26161 11.8403 3.38705 11.9657 3.54249 11.9657ZM10.099 12.8179C10.1798 12.8183 10.2545 12.7634 10.2753 12.6804C10.3005 12.5824 10.2424 12.4821 10.1451 12.4569L10.099 12.4449L6.58867 11.5276C6.5393 11.5151 6.4848 11.5075 6.43105 11.5071C6.07702 11.5056 5.78883 11.7939 5.78736 12.1515C5.78589 12.5088 6.07152 12.8164 6.42555 12.8179H6.58867H10.099ZM12.2499 11.6848C12.2499 11.8403 12.3753 11.9657 12.5308 11.9657C12.6862 11.9657 12.8117 11.8403 12.8117 11.6848C12.8117 10.5221 11.6665 9.54636 9.98964 9.11517C10.0222 9.2183 10.043 9.32545 10.043 9.43774C10.043 9.52624 10.0229 9.61586 9.9988 9.70658C11.3249 10.0902 12.2499 10.8418 12.2499 11.6848ZM6.71221 5.19161C6.58493 3.87571 6.29015 1.96402 5.76643 0.667114C5.14724 0.960083 4.60374 1.36861 4.12793 1.8638C5.41387 2.95224 6.27734 4.36468 6.71221 5.19161ZM11.9456 1.86367C11.4694 1.36848 10.9256 0.959952 10.3068 0.667358C9.78302 1.96389 9.48827 3.87561 9.36096 5.19148C9.79581 4.36455 10.659 2.95173 11.9456 1.86367Z" fill="#172026"/>
</svg>
