<svg width="16" height="16" viewBox="0 0 16 16" fill="none" xmlns="http://www.w3.org/2000/svg">
<path fill-rule="evenodd" clip-rule="evenodd" d="M6.22195 2.60211L7.64367 0.227453C7.47667 0.155391 7.29939 0.103516 7.10614 0.103516C6.32664 0.103516 5.6947 0.735453 5.6947 1.51477C5.6947 1.95642 5.90386 2.3438 6.22195 2.60211ZM15.8684 9.62262L15.4901 9.37C15.4167 8.14116 14.9779 6.94291 14.2039 5.95147L13.2142 6.07869L13.2828 5.97622C13.5409 5.58975 13.4357 5.06269 13.0496 4.80437L12.4978 4.43606C12.1117 4.17812 11.5844 4.28315 11.3263 4.66962L11.2486 4.78566L10.8093 2.1575L8.13838 0.497437L6.70604 2.88987L7.40854 3.28219L2.31023 2.63616L1.57251 3.74034L4.64782 5.79453C4.50923 5.96081 4.3756 6.13278 4.25276 6.31666C4.1301 6.50072 4.02232 6.68991 3.92166 6.8815L0.846696 4.82731L0.109009 5.93184L4.09217 12.9027L4.09895 12.8917C4.17888 13.0252 4.26741 13.1542 4.3576 13.2829L5.6871 13.1121L5.43998 13.4813C5.18204 13.8677 5.28726 14.395 5.67354 14.6531L6.22516 15.0216C6.61145 15.2793 7.13851 15.1748 7.39645 14.7884L7.6027 14.48L7.75395 15.657C8.91185 15.9716 10.1251 15.9298 11.243 15.5712L11.6944 15.8726C12.9285 15.4371 14.0373 14.6135 14.8205 13.4417C15.6037 12.2695 15.9396 10.9294 15.8684 9.62262ZM11.3329 12.9321C11.2464 13.0615 11.0718 13.0959 10.9424 13.0098C10.813 12.9232 10.7785 12.7487 10.8647 12.6189C10.9509 12.4898 11.1261 12.455 11.2552 12.5412C11.3846 12.6277 11.4194 12.8027 11.3329 12.9321ZM11.2346 10.98C10.8159 11.6073 10.1149 11.982 9.36029 11.982C8.91407 11.982 8.48251 11.8504 8.11035 11.6018C7.07729 10.9125 6.79882 9.51116 7.48813 8.47825C7.90723 7.85037 8.60791 7.47619 9.36357 7.47619C9.80907 7.47619 10.2406 7.60747 10.6128 7.85531C11.6453 8.54575 11.9239 9.94784 11.2346 10.98ZM12.1293 14.0929C12.0431 14.222 11.8682 14.2568 11.7392 14.1706C11.6094 14.0841 11.5749 13.9092 11.6615 13.7798C11.748 13.6507 11.9225 13.6159 12.0516 13.7024C12.181 13.7886 12.2158 13.9631 12.1293 14.0929ZM12.3485 11.882C12.2624 12.011 12.0878 12.0459 11.9584 11.9597C11.8294 11.8732 11.7942 11.6979 11.8807 11.5688C11.9673 11.4394 12.1418 11.4046 12.2708 11.4911C12.4006 11.5776 12.4351 11.7522 12.3485 11.882ZM12.5396 10.6185C12.4101 10.5323 12.3757 10.3574 12.4619 10.2276C12.548 10.0985 12.7233 10.0637 12.8527 10.1499C12.9818 10.2364 13.0166 10.4117 12.9304 10.5407C12.8443 10.6702 12.669 10.705 12.5396 10.6185ZM13.4357 12.6076C13.3495 12.737 13.175 12.7714 13.0452 12.6849C12.9161 12.5988 12.8809 12.4242 12.9675 12.2948C13.054 12.1657 13.2289 12.1306 13.3579 12.2171C13.4874 12.3036 13.5219 12.4782 13.4357 12.6076ZM14.3076 10.8318C14.2214 10.9616 14.0462 10.9961 13.9171 10.9096C13.7873 10.823 13.7529 10.6485 13.8394 10.5195C13.9259 10.39 14.1004 10.3552 14.2299 10.4417C14.3589 10.5279 14.3938 10.7028 14.3076 10.8318ZM9.36367 8.03906C9.69695 8.03906 10.0207 8.1375 10.2997 8.32413C11.0741 8.84169 11.2838 9.89253 10.7661 10.6677C10.4523 11.1377 9.92648 11.4189 9.35964 11.4189C9.02598 11.4189 8.70186 11.3199 8.4232 11.1333C7.64898 10.6163 7.43945 9.56547 7.95679 8.79034C8.27064 8.32028 8.79645 8.03906 9.36367 8.03906Z" fill="#172026"/>
</svg>
