<svg width="16" height="16" viewBox="0 0 16 16" fill="none" xmlns="http://www.w3.org/2000/svg">
<g clip-path="url(#clip0)">
<path fill-rule="evenodd" clip-rule="evenodd" d="M15.5151 5.33333H12.7428H9.07536H6.78784V1.77778L8.72724 0.8L9.21208 0H12.606L13.0909 0.8L15.5151 1.77778V5.33333ZM4.84851 2.66663H5.33336V5.037H4.84851V2.66663ZM2.90915 4.14813C2.90915 4.47541 2.69208 4.74073 2.4243 4.74073C2.15653 4.74073 1.93945 4.47541 1.93945 4.14813C1.93945 3.82085 2.15653 3.55554 2.4243 3.55554C2.69208 3.55554 2.90915 3.82085 2.90915 4.14813ZM12.8486 9.69123V8.61331L11.9598 7.88916L11.2723 9.56975C10.9174 9.74575 10.6667 10.17 10.6667 10.6666C10.6667 10.9351 10.7424 11.1804 10.866 11.3789L10.6997 14.2222H12.1577L12.3162 11.5105C12.4946 11.296 12.6061 10.9973 12.6061 10.6666C12.6061 10.5629 12.5916 10.4646 12.5712 10.3686L12.8486 9.69123ZM11.6364 11.2592C11.3693 11.2592 11.1516 10.9932 11.1516 10.6666C11.1516 10.3401 11.3693 10.074 11.6364 10.074C11.9036 10.074 12.1213 10.3401 12.1213 10.6666C12.1213 10.9932 11.9036 11.2592 11.6364 11.2592ZM3.87879 5.33332H4.36364V2.37036H2.42424L0.969697 3.55555V4.44444H0.121212C0.054303 4.44444 0 4.51081 0 4.59258C0 4.67436 0.054303 4.74073 0.121212 4.74073H0.969697V5.33332H0.242424C0.108606 5.33332 0 5.46606 0 5.62962C0 5.79318 0.108606 5.92592 0.242424 5.92592H3.39394L3.87879 5.33332ZM2.42424 5.03703C2.02279 5.03703 1.69697 4.63881 1.69697 4.14814C1.69697 3.65747 2.02279 3.25925 2.42424 3.25925C2.8257 3.25925 3.15152 3.65747 3.15152 4.14814C3.15152 4.63881 2.8257 5.03703 2.42424 5.03703ZM14.9048 11.2391L15.428 14.2222H13.9433L13.4987 11.629C13.2524 11.4145 13.091 11.0643 13.091 10.6666C13.091 10.368 13.1846 10.0989 13.3334 9.89035V9.79613V8.29627L11.8789 7.11109H9.57584L8.14165 8.51316L7.68056 10.2038C7.73002 10.3461 7.75765 10.5025 7.75765 10.6666C7.75765 10.9843 7.65147 11.2669 7.48468 11.4785L8.73656 12.1991L8.10577 13.8015L6.85874 13.0666L6.52129 14.2222H4.97656L5.88808 11.1028C5.84396 10.9677 5.81826 10.8213 5.81826 10.6666C5.81826 10.2311 6.01268 9.8542 6.29923 9.64798L6.86505 7.5739C6.81559 7.43168 6.78796 7.27524 6.78796 7.11109C6.78796 6.45627 7.2219 5.9259 7.75765 5.9259H15.3766L14.788 8.44442V9.89035C14.9368 10.0989 15.0304 10.368 15.0304 10.6666C15.0304 10.8752 14.9824 11.0684 14.9048 11.2391ZM6.30311 10.6666C6.30311 10.9932 6.5208 11.2592 6.78796 11.2592C7.05511 11.2592 7.2728 10.9932 7.2728 10.6666C7.2728 10.3401 7.05511 10.0741 6.78796 10.0741C6.5208 10.0741 6.30311 10.3401 6.30311 10.6666ZM7.2728 7.11109C7.2728 7.43761 7.4905 7.70368 7.75765 7.70368C8.02481 7.70368 8.2425 7.43761 8.2425 7.11109C8.2425 6.78457 8.02481 6.5185 7.75765 6.5185C7.4905 6.5185 7.2728 6.78457 7.2728 7.11109ZM14.5455 7.11109C14.5455 6.78457 14.3278 6.5185 14.0607 6.5185C13.7935 6.5185 13.5758 6.78457 13.5758 7.11109C13.5758 7.43761 13.7935 7.70368 14.0607 7.70368C14.3278 7.70368 14.5455 7.43761 14.5455 7.11109ZM14.0607 10.0741C13.7935 10.0741 13.5758 10.3401 13.5758 10.6666C13.5758 10.9932 13.7935 11.2592 14.0607 11.2592C14.3278 11.2592 14.5455 10.9932 14.5455 10.6666C14.5455 10.3401 14.3278 10.0741 14.0607 10.0741ZM6.30296 2.66663H5.81812V5.037H6.30296V2.66663ZM9.21695 12.3449L9.56653 12.1399L10.222 12.5251L9.17138 15.1953L8.51586 14.8095L8.42859 14.3473L9.21695 12.3449ZM15.6969 14.8148H13.8787L13.5757 15.1111V16H15.9999V15.1111L15.6969 14.8148ZM10.1819 15.1111L10.4849 14.8148H12.3031L12.6061 15.1111V16H10.1819V15.1111ZM4.66668 14.8148L4.36365 15.1111V16H6.78789V15.1111L6.48486 14.8148H4.66668ZM5.09138 12.0676L4.62835 11.8015C4.5435 11.8312 4.45622 11.8519 4.36362 11.8519C3.82786 11.8519 3.39392 11.3215 3.39392 10.6667C3.39392 10.0119 3.82786 9.48155 4.36362 9.48155C4.36586 9.48155 4.36798 9.48202 4.37004 9.48248C4.37197 9.48291 4.37386 9.48333 4.37574 9.48333L6.4155 7.34644L5.88992 9.27414C5.54277 9.60895 5.33331 10.1233 5.33331 10.6667C5.33331 10.8095 5.34786 10.9518 5.37647 11.0916L5.09138 12.0676ZM4.36362 10.0741C4.09647 10.0741 3.87877 10.3402 3.87877 10.6667C3.87877 10.9933 4.09647 11.2593 4.36362 11.2593C4.63077 11.2593 4.84847 10.9933 4.84847 10.6667C4.84847 10.3402 4.63077 10.0741 4.36362 10.0741Z" fill="#172026"/>
</g>
<defs>
<clipPath id="clip0">
<rect width="16" height="16" fill="white"/>
</clipPath>
</defs>
</svg>
