<svg width="164" height="48" viewBox="0 0 164 48" fill="none" xmlns="http://www.w3.org/2000/svg">
<g clip-path="url(#clip0)">
<path d="M22.3593 0.465624C22.8134 0.163965 23.3465 0.00305176 23.8916 0.00305176C24.4368 0.00305176 24.9698 0.163965 25.4239 0.465624C27.7735 1.94853 30.0284 3.5763 32.1756 5.33947C32.1756 5.33947 32.7611 5.74562 32.7769 5.05464C32.7769 5.05464 32.6819 3.01859 32.9299 2.41727C33.0082 2.17429 33.1619 1.96255 33.3687 1.81272C33.5754 1.66289 33.8244 1.58273 34.0798 1.58387C34.0798 1.58387 36.7171 1.71573 38.4261 1.94255C38.7924 2.00031 39.1288 2.17933 39.3812 2.45094C39.6337 2.72254 39.7877 3.07103 39.8186 3.44057C39.8186 3.44057 40.9052 10.7039 41.1426 13.3096C41.1426 13.3096 41.3536 14.6388 43.2525 16.8911C43.2525 16.8911 47.1347 22.3399 47.6147 23.416C47.6147 23.416 48.5272 25.3149 46.5597 25.5628C46.5597 25.5628 42.9888 25.9214 42.6512 26.0058C42.4173 26.0286 42.2018 26.1427 42.0517 26.3235C41.9015 26.5043 41.8288 26.737 41.8494 26.9711C41.8494 26.9711 41.6701 39.5619 40.747 45.6173C40.747 45.6173 40.5096 48.0173 39.1646 47.9593C39.1646 47.9593 35.4723 47.8379 34.6494 47.8643C34.6494 47.8643 34.2749 47.8643 34.3329 47.3738C34.3329 47.3738 36.2002 27.7307 34.929 17.7931C34.929 17.7931 34.8815 16.5113 33.874 16.2476C33.874 16.2476 32.9879 15.8889 32.1334 17.0652C28.4374 22.243 26.4128 28.4271 26.3312 34.7883C26.3312 34.7883 26.2257 37.9531 26.7057 38.7338C26.7057 38.7338 27.0011 39.2612 28.5202 39.4089L30.4455 39.6674C30.4455 39.6674 30.8041 39.6674 30.7725 40.1368C30.7725 40.1368 30.3294 45.8968 30.2028 46.9201C30.1994 47.1535 30.1529 47.3841 30.0657 47.6006C30.0657 47.6006 29.9971 47.7957 29.3905 47.7746C29.3905 47.7746 20.9193 47.7113 19.9646 47.7746C19.9646 47.7746 19.5637 47.8168 19.4793 47.5689C19.3949 47.321 18.8885 40.1263 18.9096 39.1294C18.8989 39.0218 18.9214 38.9135 18.9743 38.8191C19.0271 38.7248 19.1077 38.6489 19.205 38.6019C19.8532 38.1956 20.4014 37.6484 20.8087 37.0009C21.216 36.3534 21.472 35.6223 21.5576 34.8621C21.67 33.7669 21.693 32.6643 21.6261 31.5654C21.6261 31.5654 21.9373 20.4885 22.0165 18.7425C22.0165 18.7425 22.085 18.1465 21.2991 18.0305C21.1131 17.9857 20.917 18.0159 20.7531 18.1146C20.5893 18.2134 20.4709 18.3726 20.4235 18.5579V18.6265C20.4235 18.6265 19.896 25.9162 19.9804 28.8173C19.9804 28.8173 20.165 30.7056 18.8622 30.7425C18.8622 30.7425 17.591 30.9324 17.5329 29.3658C17.5329 29.3658 17.6279 22.2766 17.9338 18.7742C17.9397 18.5813 17.8703 18.3937 17.7404 18.2509C17.6105 18.1082 17.4302 18.0216 17.2376 18.0094C17.0361 17.9758 16.8296 18.0236 16.6634 18.1423C16.4972 18.261 16.385 18.4409 16.3514 18.6423V18.7056C16.3514 18.7056 15.8239 25.4836 15.9083 29.0652C15.9083 29.0652 16.0666 30.8006 14.6793 30.7373C14.6793 30.7373 13.5241 30.8744 13.4556 29.3342C13.4556 29.3342 13.7721 19.6287 13.8565 18.8744C13.8706 18.7726 13.8644 18.6689 13.8383 18.5694C13.8123 18.47 13.7668 18.3766 13.7046 18.2948C13.6423 18.2129 13.5645 18.1442 13.4756 18.0925C13.3867 18.0408 13.2885 18.0072 13.1866 17.9935H13.0811C12.9847 17.9794 12.8864 17.9847 12.7921 18.009C12.6977 18.0333 12.6091 18.0762 12.5315 18.1351C12.4539 18.1941 12.3889 18.2679 12.3401 18.3522C12.2914 18.4366 12.26 18.5298 12.2477 18.6265V18.7109C12.2477 18.7109 11.7202 30.3153 11.8046 33.7228C11.8046 33.7228 11.7571 37.2305 14.3417 38.6494C14.3417 38.6494 14.7215 38.8709 14.7321 39.1768C14.7321 39.1768 15.0222 45.3377 15.2595 47.321C15.2595 47.321 15.3545 47.7957 14.9325 47.7957L8.43931 48.0015C8.0991 47.9994 7.77242 47.8679 7.52556 47.6338C7.27871 47.3997 7.13017 47.0804 7.11008 46.7408C6.29302 40.2206 5.91766 33.6527 5.98657 27.0819C6.01054 26.8389 5.94259 26.5958 5.79612 26.4005C5.64965 26.2053 5.43529 26.0719 5.19536 26.0269C5.19536 26.0269 1.86173 25.7157 1.0547 25.4995C0.877261 25.4563 0.710142 25.3784 0.562999 25.2702C0.415856 25.1621 0.291609 25.0258 0.197437 24.8693C0.103265 24.7129 0.0410372 24.5393 0.0143493 24.3587C-0.0123387 24.178 -0.00295732 23.9938 0.0419513 23.8168C0.07372 23.6925 0.123475 23.5734 0.189644 23.4634C5.61559 14.1209 13.222 6.23039 22.3593 0.465624Z" fill="#FF8000"/>
<path d="M93.0673 16.8791C93.007 16.7956 92.9277 16.7277 92.836 16.6809C92.7443 16.6342 92.6427 16.6099 92.5398 16.6101H86.8009L79.7591 40.4308L77.1218 28.858L85.2923 17.702C85.3491 17.6304 85.3904 17.5477 85.4136 17.4593L85.556 16.9688C85.5673 16.9328 85.5711 16.8949 85.5673 16.8573C85.5635 16.8198 85.5521 16.7835 85.5339 16.7504C85.5156 16.7174 85.4909 16.6884 85.4612 16.6652C85.4314 16.642 85.3973 16.6251 85.3609 16.6154C85.3348 16.6098 85.3078 16.6098 85.2818 16.6154H79.4796L73.1921 25.7618L75.8611 17.4699C75.912 17.2999 75.8933 17.1167 75.8093 16.9605C75.7252 16.8042 75.5826 16.6877 75.4127 16.6365C75.3496 16.617 75.2836 16.6081 75.2176 16.6101H69.4523L64.4624 33.5472C64.5732 30.6409 62.3156 28.3464 61.0022 26.8958C59.9473 25.7143 59.2985 24.8756 59.4198 23.942C59.501 23.3199 59.7987 22.7462 60.2608 22.3218C60.7228 21.8974 61.3196 21.6493 61.9464 21.6211C63.3811 21.5051 63.9982 21.9481 64.9108 22.3754C65.0173 22.4227 65.1319 22.4496 65.2484 22.4545C65.3422 22.4533 65.4351 22.4355 65.5226 22.4018C65.6188 22.3653 65.7054 22.3075 65.7758 22.2325C65.8462 22.1575 65.8985 22.0675 65.9288 21.9692L67.2686 17.4382L66.3402 17.0057L66.2031 16.9424H66.1609C65.0581 16.4707 63.8682 16.2371 62.669 16.2567C57.6211 16.2567 53.0268 19.8699 52.2673 24.3165C51.7398 27.4286 53.7284 29.6229 55.1842 31.2264L55.3108 31.3688C56.3657 32.4976 57.0936 33.3732 56.8932 34.3859C56.6506 35.8101 55.2686 36.6224 53.9341 36.7332C52.4677 36.8545 51.5499 36.4431 50.4053 35.9367C50.2054 35.818 49.9696 35.7749 49.7407 35.8154C49.6311 35.8482 49.5312 35.9071 49.4494 35.987C49.3677 36.0669 49.3065 36.1655 49.2712 36.2743L48 40.6523L47.8365 41.2114C49.5408 42.0095 51.3932 42.4425 53.2747 42.4826C57.5789 42.4826 61.2976 40.8316 63.5077 36.8439L62.2048 41.2853C62.1798 41.3694 62.1717 41.4577 62.181 41.545C62.1903 41.6323 62.2168 41.7169 62.259 41.7939C62.3012 41.8709 62.3582 41.9388 62.4268 41.9936C62.4953 42.0485 62.5741 42.0892 62.6585 42.1134C62.7196 42.1342 62.7838 42.1449 62.8484 42.145H68.6136L70.0536 37.2554L71.8048 34.7288L73.1552 41.5859C73.1887 41.7357 73.2723 41.8696 73.3922 41.9654C73.5121 42.0613 73.661 42.1135 73.8145 42.1134H85.9464L93.1991 17.4593C93.2295 17.3595 93.2358 17.254 93.2175 17.1513C93.1991 17.0486 93.1567 16.9517 93.0936 16.8686L93.0673 16.8791Z" fill="#FF8000"/>
<path d="M100.615 22.1222H102.767C102.914 22.1163 103.06 22.141 103.196 22.1946C103.332 22.2481 103.456 22.3295 103.559 22.4334C103.733 22.6319 103.861 22.866 103.935 23.1193C104.008 23.3726 104.026 23.639 103.986 23.8998C103.858 25.2546 103.501 26.578 102.931 27.8136C102.219 29.396 101.56 30.5829 99.6818 30.7991H98.0519L100.615 22.1222ZM96.4589 36.269H98.9644C105.009 36.3481 108.069 32.102 109.435 27.4919C109.892 26.1532 110.163 24.7583 110.242 23.3459C110.332 21.5852 109.734 19.8583 108.575 18.5301C108.017 17.9177 107.335 17.4301 106.575 17.0992C105.815 16.7683 104.994 16.6017 104.165 16.6101H94.6339L94.2277 17.9604C94.2102 18.0222 94.2058 18.087 94.2149 18.1507C94.224 18.2143 94.2463 18.2752 94.2805 18.3297L94.5495 18.7569C94.6822 18.9625 94.768 19.1948 94.8008 19.4373C94.8336 19.6798 94.8126 19.9265 94.7394 20.16L88.5468 41.2589C88.5157 41.3583 88.5085 41.4636 88.526 41.5663C88.5434 41.669 88.5849 41.7661 88.647 41.8497C88.7085 41.9323 88.7879 42 88.8792 42.0475C88.9706 42.095 89.0716 42.1211 89.1745 42.124H94.7235L96.4536 36.269H96.4589Z" fill="#FF8000"/>
<path d="M115.126 29.76H115.933C116.714 29.76 117.384 30.451 117.278 32.16C117.173 33.869 115.817 39.6554 113.111 39.6554H112.215L115.126 29.76ZM108.949 42.1081H112.468C118.091 42.1081 120.047 35.0558 120.227 32.0862C120.422 28.8369 118.613 27.2598 116.64 27.2598H112.879L108.659 41.6703C108.637 41.7508 108.646 41.837 108.687 41.9101C108.728 41.9832 108.795 42.0374 108.876 42.0607C108.905 42.0657 108.936 42.0657 108.965 42.0607L108.949 42.1081Z" fill="#FF8000"/>
<path d="M117.542 25.287H118.908L119.963 21.695H121.609L120.633 25.0391C120.62 25.0874 120.627 25.1388 120.651 25.1823C120.676 25.2257 120.717 25.2577 120.765 25.2712H120.818H122.184L124.547 17.2009C124.554 17.177 124.557 17.1519 124.554 17.127C124.552 17.1021 124.545 17.078 124.533 17.0559C124.521 17.0339 124.505 17.0144 124.486 16.9985C124.466 16.9827 124.444 16.9708 124.42 16.9635H123.012L122.036 20.3183H120.374L121.282 17.2114C121.289 17.1875 121.292 17.1624 121.289 17.1376C121.287 17.1127 121.279 17.0885 121.268 17.0665C121.256 17.0444 121.24 17.0249 121.221 17.0091C121.201 16.9932 121.179 16.9813 121.155 16.9741H119.736L117.373 25.0444C117.367 25.0694 117.366 25.0953 117.369 25.1207C117.373 25.1462 117.382 25.1707 117.395 25.1927C117.408 25.2148 117.426 25.234 117.446 25.2493C117.467 25.2646 117.491 25.2756 117.516 25.2818H117.547L117.542 25.287Z" fill="#FF8000"/>
<path d="M123.75 25.2501H127.232L127.569 24.1108C127.587 24.0667 127.586 24.0176 127.567 23.9741C127.548 23.9306 127.513 23.8963 127.469 23.8787C127.441 23.8708 127.412 23.8708 127.385 23.8787H125.496L126.177 21.7213H127.891L128.229 20.5714C128.236 20.5475 128.238 20.5224 128.236 20.4976C128.234 20.4727 128.226 20.4485 128.215 20.4265C128.203 20.4044 128.187 20.3849 128.168 20.369C128.148 20.3532 128.126 20.3413 128.102 20.3341H126.593L127.189 18.3297H129.299L129.626 17.1903C129.634 17.1664 129.636 17.1413 129.634 17.1165C129.631 17.0916 129.624 17.0674 129.612 17.0454C129.601 17.0233 129.585 17.0038 129.565 16.9879C129.546 16.9721 129.524 16.9602 129.5 16.953H125.939L125.897 17.0901L123.576 25.0022C123.567 25.0524 123.577 25.1044 123.604 25.1476C123.631 25.1907 123.674 25.2218 123.724 25.2343H123.766L123.75 25.2501Z" fill="#FF8000"/>
<path d="M113.734 25.2501H115.1L117.136 18.3191H118.433L118.755 17.1798C118.761 17.1548 118.763 17.1289 118.759 17.1034C118.755 17.078 118.747 17.0535 118.733 17.0315C118.72 17.0094 118.703 16.9902 118.682 16.9749C118.661 16.9596 118.638 16.9486 118.613 16.9424H114.599L114.277 18.0818C114.271 18.1067 114.269 18.1326 114.273 18.1581C114.277 18.1835 114.286 18.208 114.299 18.2301C114.312 18.2521 114.329 18.2713 114.35 18.2866C114.371 18.3019 114.394 18.313 114.419 18.3191H115.516L113.56 25.0075C113.547 25.0557 113.553 25.1071 113.578 25.1506C113.603 25.194 113.643 25.226 113.691 25.2396H113.744L113.734 25.2501Z" fill="#FF8000"/>
<path d="M123.756 27.2914L119.536 41.7178C119.513 41.7982 119.523 41.8844 119.563 41.9576C119.604 42.0307 119.672 42.0848 119.752 42.1081C119.782 42.1131 119.812 42.1131 119.842 42.1081H122.305L126.525 27.6818C126.536 27.6409 126.539 27.5982 126.534 27.5562C126.528 27.5141 126.515 27.4736 126.494 27.4368C126.473 27.4001 126.444 27.3678 126.411 27.342C126.377 27.3161 126.339 27.2972 126.298 27.2861C126.272 27.2806 126.245 27.2806 126.219 27.2861L123.756 27.2914Z" fill="#FF8000"/>
<path d="M146.073 27.2914H143.583L141.832 33.273H138.894L140.524 27.6976C140.535 27.6567 140.538 27.614 140.533 27.572C140.527 27.53 140.514 27.4894 140.493 27.4527C140.472 27.4159 140.444 27.3837 140.41 27.3578C140.376 27.332 140.338 27.313 140.297 27.302C140.271 27.2964 140.244 27.2964 140.218 27.302H137.781L133.561 41.7284C133.539 41.8088 133.548 41.895 133.589 41.9681C133.629 42.0413 133.697 42.0954 133.778 42.1187C133.807 42.1237 133.838 42.1237 133.867 42.1187H136.336L138.198 35.7204H141.136L139.353 41.7178C139.333 41.8002 139.346 41.8871 139.388 41.9607C139.43 42.0342 139.499 42.0888 139.58 42.1134H139.659H142.127L146.347 27.687C146.358 27.6455 146.361 27.6021 146.355 27.5595C146.349 27.5169 146.334 27.476 146.312 27.4391C146.29 27.4022 146.261 27.3702 146.226 27.3448C146.191 27.3194 146.152 27.3013 146.11 27.2914C146.084 27.2863 146.057 27.2863 146.031 27.2914H146.073Z" fill="#FF8000"/>
<path d="M152.392 33.3363H149.802L150.857 29.7547H154.655L155.251 27.6923C155.262 27.6514 155.265 27.6088 155.26 27.5667C155.254 27.5247 155.241 27.4842 155.22 27.4474C155.199 27.4106 155.171 27.3784 155.137 27.3525C155.103 27.3267 155.065 27.3077 155.024 27.2967C154.998 27.2912 154.971 27.2912 154.945 27.2967H148.668L144.448 41.7231C144.426 41.8035 144.435 41.8897 144.476 41.9628C144.517 42.036 144.584 42.0901 144.665 42.1134C144.694 42.1184 144.725 42.1184 144.754 42.1134H151.031L151.627 40.051C151.638 40.0101 151.641 39.9674 151.636 39.9254C151.631 39.8834 151.617 39.8428 151.596 39.8061C151.575 39.7693 151.547 39.7371 151.513 39.7112C151.48 39.6854 151.441 39.6664 151.4 39.6554C151.374 39.6498 151.347 39.6498 151.321 39.6554H147.935L149.085 35.8101H152.076L152.698 33.7319C152.709 33.6903 152.712 33.6469 152.706 33.6043C152.7 33.5618 152.685 33.5208 152.663 33.4839C152.641 33.4471 152.611 33.415 152.577 33.3896C152.542 33.3643 152.503 33.3461 152.461 33.3363C152.436 33.3308 152.411 33.3308 152.387 33.3363H152.392Z" fill="#FF8000"/>
<path d="M130.397 31.316C130.471 30.8444 130.702 30.4119 131.054 30.089C131.405 29.7662 131.856 29.5721 132.332 29.5385C132.889 29.507 133.445 29.6063 133.957 29.8286C134.071 29.8806 134.201 29.8854 134.319 29.8419C134.436 29.7985 134.532 29.7102 134.585 29.5965C134.587 29.5861 134.587 29.5753 134.585 29.5648C134.585 29.5226 135.175 27.5604 135.175 27.5604C134.409 27.2226 133.582 27.0432 132.744 27.033C130.106 27.033 127.469 28.9846 127.068 31.6536C126.783 33.4312 127.917 34.7024 128.73 35.6624C129.368 36.3956 129.885 37.0391 129.753 37.862C129.677 38.3719 129.423 38.8388 129.038 39.181C128.652 39.5233 128.158 39.7192 127.643 39.7345C126.973 39.8043 126.297 39.6856 125.691 39.3916C125.643 39.3615 125.588 39.3415 125.531 39.3329C125.475 39.3242 125.417 39.3271 125.361 39.3414C125.305 39.3557 125.253 39.3811 125.207 39.416C125.162 39.4509 125.124 39.4946 125.095 39.5446C125.07 39.5814 125.052 39.6225 125.043 39.6659L124.404 41.8549C125.312 42.2032 126.276 42.382 127.247 42.3824C128.626 42.3854 129.962 41.9045 131.022 41.0234C132.083 40.1424 132.8 38.9171 133.05 37.5613C133.335 35.7626 132.216 34.3965 131.404 33.4681C130.813 32.7033 130.286 32.0756 130.402 31.3002L130.397 31.316Z" fill="#FF8000"/>
<path d="M161.275 27.0435C158.637 27.0435 156 28.9952 155.599 31.6642C155.314 33.4418 156.448 34.713 157.261 35.673C157.899 36.4061 158.416 37.0497 158.284 37.8725C158.207 38.3824 157.954 38.8493 157.569 39.1916C157.183 39.5338 156.689 39.7297 156.174 39.745C155.504 39.8149 154.828 39.6961 154.222 39.4022C154.174 39.372 154.119 39.352 154.062 39.3434C154.005 39.3348 153.947 39.3377 153.892 39.352C153.836 39.3662 153.784 39.3916 153.738 39.4265C153.693 39.4614 153.655 39.5052 153.626 39.5552C153.601 39.5919 153.583 39.6331 153.574 39.6765L152.935 41.8655C153.843 42.2138 154.806 42.3926 155.778 42.393C157.157 42.396 158.493 41.915 159.553 41.034C160.614 40.1529 161.331 38.9277 161.581 37.5719C161.865 35.7732 160.747 34.407 159.935 33.4787C159.318 32.7455 158.801 32.102 158.927 31.3213C159.001 30.8463 159.235 30.4106 159.589 30.0864C159.944 29.7621 160.399 29.5688 160.879 29.5385C161.436 29.507 161.992 29.6063 162.504 29.8286C162.618 29.8806 162.748 29.8854 162.865 29.8419C162.983 29.7985 163.079 29.7102 163.131 29.5965C163.134 29.5861 163.134 29.5753 163.131 29.5648C163.131 29.5226 163.722 27.5604 163.722 27.5604C162.954 27.2226 162.125 27.0432 161.285 27.033L161.275 27.0435Z" fill="#FF8000"/>
</g>
<defs>
<clipPath id="clip0">
<rect width="163.717" height="48" fill="white"/>
</clipPath>
</defs>
</svg>
